{"title":"Godzilla 2014 HDTS-LiNE XViD-BL4CKP34RL","uid":10357902,"size":1951825456,"categoryP":"video","categoryS":"movies","magnet":"?xt=urn:btih:d0bc512e0aa1d809d574ea53e247622b5c18607e&amp;dn=Godzilla+2014+HDTS-LiNE+XViD-BL4CKP34RL&amp;tr=udp%3A%2F%2Ftracker.openbittorrent.com%3A80&amp;tr=udp%3A%2F%2Fopen.demonii.com%3A1337&amp;tr=udp%3A%2F%2Ftracker.coppersurfer.tk%3A6969&amp;tr=udp%3A%2F%2Fexodus.desync.com%3A6969","seeders":3,"leechers":1,"uploader":"Xetron","files":5,"time":1402769542,"description":"[img]http://imgchicken.com/images/52502285780953753067.jpg[/img]\n\n[img]http://imgchicken.com/images/60048563089083841705.png[/img]\n\nA Fine Release Brought to you from - BL4CKP34RL\n\n******************************************************************************************\n         Godzilla.2014.HDTS-LiNE.XViD-BL4CKP34RL\n******************************************************************************************\n\nRipper: J4CKSP4RR0W                        IMDB Rating: 7.2/10\nVideo Codec: XViD                                Release Date: 13 June 2014\nAudio Codec: mp3                               Theatre Date: 16 May 2014\nAudio Bitrate: 128 kbps                       Runtime: 1hr 55min 59sec\nSubtitles: n/a                                       Language: ENGLISH\nResolution: 720x288                            IMDb URL: http://www.imdb.com/title/tt0831387/\n\n\nDETAILS:\n\n\nFormat: AVI\nFormat/Info: Audio Video Interleave\nFile size: 1.76 GiB\nDuration: 1h 55mn\nOverall bit rate: 2 176 Kbps\nWriting library: VirtualDub build 32839/release\n\nVideo\nID: 0\nFormat: MPEG-4 Visual\nFormat profile: Advanced Simple@L5\nFormat settings, BVOP: Yes\nFormat settings, QPel: No\nFormat settings, GMC: No warppoints\nFormat settings, Matrix: Default (H.263)\nCodec ID: XVID\nCodec ID/Hint: XviD\nDuration: 1h 55mn\nBit rate: 2 039 Kbps\nWidth: 720 pixels\nHeight: 288 pixels\nDisplay aspect ratio: 2.500\nFrame rate: 23.976 fps\nColor space: YUV\nChroma subsampling: 4:2:0\nBit depth: 8 bits\nScan type: Progressive\nCompression mode: Lossy\nBits/(Pixel*Frame): 0.410\nStream size: 1.65 GiB (94%)\nWriting library: XviD 64\n\nAudio\nID: 1\nFormat: MPEG Audio\nFormat version: Version 1\nFormat profile: Layer 3\nMode: Joint stereo\nMode extension: MS Stereo\nCodec ID: 55\nCodec ID/Hint: MP3\nDuration: 1h 55mn\nBit rate mode: Constant\nBit rate: 128 Kbps\nChannel(s): 2 channels\nSampling rate: 48.0 KHz\nCompression mode: Lossy\nStream size: 106 MiB (6%)\nAlignment: Split accross interleaves\nInterleave, duration: 42 ms (1.00 video frame)\n\n\nSOURCES:\n\nVIDEO: ............. 1080 a Friend ...thanks\nAUDIO: ............. QUAZiMOTO ...thanks\n\nNOTES:\n\nWell got passed a nice file for this so went to work on it.. crop, resize, denoise, slight rgb, hue and saturation\nadjustment then had to brighten it up sum as dark scenes are a lil dark but its a dark movie even in theater then\nsharpened it back up sum and then synced and muxed the ok LiNE we had for it the audio does still have sum static as we\ncouldnt remove it all but its better than CAM.. enjoy til retail as u wont get any better till then \n\n[img]http://imgchicken.com/images/02342067644103074526.png[/img]\n\n[img]http://imgchicken.com/images/61946582913866866493.png[/img]\n\n[img]http://imgchicken.com/images/26083798918323122646.png[/img]\n\n[img]http://imgchicken.com/images/32302193097426698290.png[/img]\n\n[img]http://imgchicken.com/images/39729979567268231641.png[/img]\n\n[img]http://imgchicken.com/images/51933583927019931443.png[/img]\n\n","torrent":{"xt":"urn:btih:d0bc512e0aa1d809d574ea53e247622b5c18607e","amp;dn":"Godzilla+2014+HDTS-LiNE+XViD-BL4CKP34RL","amp;tr":["udp%3A%2F%2Ftracker.openbittorrent.com%3A80","udp%3A%2F%2Fopen.demonii.com%3A1337","udp%3A%2F%2Ftracker.coppersurfer.tk%3A6969","udp%3A%2F%2Fexodus.desync.com%3A6969"],"infoHash":"d0bc512e0aa1d809d574ea53e247622b5c18607e","infoHashBuffer":{"type":"Buffer","data":[208,188,81,46,10,161,216,9,213,116,234,83,226,71,98,43,92,24,96,126]},"announce":[],"urlList":[]}}